#N canvas 1012 153 908 828 12;
#X declare -lib Gem;
#X obj 87 345 f \$0;
#X obj 183 617 gemvertexbuffer;
#X obj 87 321 spigot 1;
#N canvas 1005 234 658 695 vertcolor 0;
#X obj 80 202 until;
#X msg 124 202 0;
#X obj 80 226 f;
#X obj 110 226 + 1;
#X obj 65 75 loadbang;
#X obj 80 250 t f f f;
#X obj 57 21 inlet;
#X obj 197 242 unpack f f f;
#X text 289 242 r g b;
#X obj 241 388 pow;
#X obj 242 414 pow;
#X obj 27 407 array set \$0-colorR;
#X obj 40 433 array set \$0-colorG;
#X obj 60 458 array set \$0-colorB;
#X obj 197 266 * -2;
#X obj 237 266 * -2;
#X obj 277 266 * -2;
#X obj 277 290 + 2;
#X obj 197 290 + 2;
#X obj 237 290 + 2;
#X obj 242 439 pow;
#X obj 57 122 t b b l;
#X obj 57 542 outlet;
#X obj 57 494 f \$0;
#X msg 57 518 color \$1-colorR \$1-colorG \$1-colorB \$1-colorA;
#X obj 197 22 inlet;
#X obj 80 154 f 8192;
#X obj 57 46 route list bang;
#X obj 80 178 t f b f;
#X obj 80 274 /;
#X obj 130 353 array set \$0-opacity;
#X msg 65 99 0 0.8 1;
#X obj 183 433 * 0.9;
#X obj 169 404 * 0.7;
#X connect 0 0 2 0;
#X connect 1 0 2 1;
#X connect 2 0 3 0;
#X connect 2 0 5 0;
#X connect 3 0 2 1;
#X connect 4 0 31 0;
#X connect 5 0 29 0;
#X connect 5 1 11 1;
#X connect 5 1 12 1;
#X connect 5 1 13 1;
#X connect 5 2 30 1;
#X connect 6 0 27 0;
#X connect 7 0 14 0;
#X connect 7 1 15 0;
#X connect 7 2 16 0;
#X connect 9 0 33 0;
#X connect 10 0 32 0;
#X connect 14 0 18 0;
#X connect 15 0 19 0;
#X connect 16 0 17 0;
#X connect 17 0 20 1;
#X connect 18 0 9 1;
#X connect 19 0 10 1;
#X connect 20 0 13 0;
#X connect 21 0 23 0;
#X connect 21 1 26 0;
#X connect 21 2 7 0;
#X connect 23 0 24 0;
#X connect 24 0 22 0;
#X connect 25 0 26 1;
#X connect 26 0 28 0;
#X connect 27 0 21 0;
#X connect 27 1 31 0;
#X connect 28 0 0 0;
#X connect 28 1 1 0;
#X connect 28 2 29 1;
#X connect 29 0 9 0;
#X connect 29 0 10 0;
#X connect 29 0 20 0;
#X connect 29 0 30 0;
#X connect 31 0 21 0;
#X connect 32 0 12 0;
#X connect 33 0 11 0;
#X restore 238 350 pd vertcolor;
#X obj 144 229 tabwrite~ \$0-arrayX;
#X obj 225 205 tabwrite~ \$0-arrayY;
#X obj 87 138 bang~;
#X obj 183 443 gemhead;
#X obj 144 35 inlet~;
#X text 193 34 position;
#X obj 87 162 t a a a a;
#X msg 293 375 width \$1;
#X obj 437 129 loadbang;
#X obj 540 188 f \$2;
#X obj 489 188 f \$1;
#X obj 591 188 f \$3;
#X obj 489 212 sel 0;
#X obj 540 212 sel 0;
#X obj 591 212 sel 0;
#X msg 521 282 set \$1 \$2 \$3 \, 1;
#X obj 348 399 pack \$1 \$0;
#X msg 370 539 resize \$1;
#X obj 370 574 array define \$0-arrayX 8192;
#X obj 370 598 array define \$0-arrayY 8192;
#X obj 370 662 array define \$0-colorR 8192;
#X obj 370 686 array define \$0-colorG 8192;
#X obj 370 710 array define \$0-colorB 8192;
#X obj 370 734 array define \$0-colorA 8192;
#X obj 348 283 sel 1 0;
#X msg 380 511 resize 0;
#X obj 521 306 switch~;
#X obj 502 129 bng 19 250 50 0 empty empty empty 0 -10 0 12 #fcfcfc #000000 #000000;
#X obj 370 770 array define \$0-opacity 8192;
#X obj 144 64 snake~ out 2;
#X obj 268 83 inlet~;
#X obj 268 180 tabwrite~ \$0-colorA;
#X obj 268 131 *~;
#X obj 268 35 loadbang;
#X obj 369 33 declare -lib Gem;
#X msg 531 384 0 \, destroy;
#X obj 183 259 route update color width display;
#X obj 531 344 t b b;
#X obj 348 307 t b b b;
#X obj 437 153 t a a a a a;
#X obj 286 107 tabreceive~ \$0-opacity;
#X obj 370 622 array define \$0-zero 8192;
#X obj 183 467 scale 4;
#X obj 663 204 pow~ 2;
#X obj 663 228 snake~ out;
#X obj 663 252 sqrt~;
#X obj 663 276 pow~ -1;
#X obj 663 300 min~ 1;
#X obj 663 130 rzero~ 1;
#X obj 735 130 rzero~ 1;
#X obj 663 154 snake~;
#X obj 636 434 gemwin 60;
#X obj 268 156 *~;
#X msg 268 59 1;
#X msg 87 369 position \$1-arrayX \$1-arrayY \$1-zero \, color \$1-colorR \$1-colorG \$1-colorB \$1-colorA, f 20;
#X obj 521 258 pack 32768 64 1;
#X obj 370 331 f 32768;
#X msg 636 395 create \, dimen 800 800 \, title XY\ oscilloscope \, 1, f 25;
#X msg 276 482 auto 0;
#X obj 663 179 *~ 80;
#X msg 348 423 color_enable 1 \, position_enable 1 \, draw linestrip \, width 2, f 37;
#X obj 183 527 alpha 0;
#X connect 0 0 58 0;
#X connect 2 0 0 0;
#X connect 3 0 1 0;
#X connect 6 0 10 0;
#X connect 7 0 46 0;
#X connect 8 0 33 0;
#X connect 8 1 40 0;
#X connect 10 0 2 0;
#X connect 10 1 4 0;
#X connect 10 2 5 0;
#X connect 10 3 35 0;
#X connect 11 0 1 0;
#X connect 12 0 43 0;
#X connect 13 0 17 0;
#X connect 14 0 16 0;
#X connect 15 0 18 0;
#X connect 16 0 59 0;
#X connect 16 1 59 0;
#X connect 16 1 60 1;
#X connect 17 1 59 1;
#X connect 18 1 59 2;
#X connect 19 0 30 0;
#X connect 20 0 64 0;
#X connect 21 0 1 0;
#X connect 21 0 22 0;
#X connect 21 0 23 0;
#X connect 21 0 24 0;
#X connect 21 0 25 0;
#X connect 21 0 26 0;
#X connect 21 0 27 0;
#X connect 21 0 32 0;
#X connect 21 0 45 0;
#X connect 28 0 42 0;
#X connect 28 1 41 0;
#X connect 29 0 1 0;
#X connect 31 0 43 0;
#X connect 33 0 52 0;
#X connect 33 0 4 0;
#X connect 33 1 53 0;
#X connect 33 1 5 0;
#X connect 34 0 36 0;
#X connect 36 0 56 0;
#X connect 37 0 57 0;
#X connect 39 0 55 0;
#X connect 40 0 2 1;
#X connect 40 0 7 0;
#X connect 40 1 3 0;
#X connect 40 2 11 0;
#X connect 40 3 28 0;
#X connect 41 0 39 0;
#X connect 41 1 29 0;
#X connect 42 0 20 0;
#X connect 42 0 62 0;
#X connect 42 1 60 0;
#X connect 42 2 61 0;
#X connect 43 0 3 0;
#X connect 43 1 60 0;
#X connect 43 2 14 0;
#X connect 43 3 13 0;
#X connect 43 4 15 0;
#X connect 44 0 36 1;
#X connect 46 0 65 0;
#X connect 47 0 48 0;
#X connect 48 0 49 0;
#X connect 48 1 49 0;
#X connect 49 0 50 0;
#X connect 50 0 51 0;
#X connect 51 0 56 1;
#X connect 52 0 54 0;
#X connect 53 0 54 1;
#X connect 54 0 63 0;
#X connect 56 0 35 0;
#X connect 57 0 34 0;
#X connect 58 0 1 0;
#X connect 59 0 19 0;
#X connect 60 0 21 0;
#X connect 60 0 3 1;
#X connect 61 0 55 0;
#X connect 62 0 65 0;
#X connect 63 0 47 0;
#X connect 64 0 1 0;
#X connect 65 0 1 0;
