#N canvas 846 57 424 799 10;
#X obj 53 90 readsf~ 2;
#X obj 53 112 snake~;
#X obj 75 222 tgl 16 0 empty empty empty 0 -8 0 10 #fcfcfc #000000 #000000 0 1;
#X msg 75 244 display \$1;
#X obj 73 151 dac~;
#X msg 257 213 0;
#X obj 161 298 snake~;
#X obj 160 210 -~ 0.5;
#X obj 160 232 abs~;
#X obj 194 255 -~ 0.5;
#X obj 194 277 abs~;
#X msg 223 168 0.25;
#X obj 161 320 *~ 4;
#X obj 161 341 -~ 1;
#X msg 53 28 open Jerobeam\ Fenderson\ &\ Hansi3D\ -\ Core\ 96k.wav \, 1, f 28;
#X obj 124 281 tgl 16 0 empty empty empty 0 -8 0 10 #fcfcfc #000000 #000000 0 1;
#X obj 124 302 == 0;
#X obj 91 297 *~;
#X obj 53 303 *~ 1;
#X obj 223 126 loadbang;
#X obj 223 147 bng 16 250 50 0 empty empty empty 0 -8 0 10 #fcfcfc #000000 #000000;
#X floatatom 160 147 7 0 0 0 - - - 0;
#X obj 160 167 t b f;
#X obj 160 189 phasor~ 200;
#X obj 194 234 phasor~ 200;
#X obj 134 90 hsl 136 16 1 10000 1 0 empty empty empty -2 -8 0 10 #fcfcfc #000000 #000000 0 1;
#X text 51 367 replace with osci_xy_pmpd for more realistic behaviour, f 28;
#X obj 53 340 osci_xy;
#X connect 0 0 1 0;
#X connect 0 1 1 1;
#X connect 1 0 4 0;
#X connect 1 0 18 0;
#X connect 2 0 3 0;
#X connect 3 0 27 0;
#X connect 5 0 24 1;
#X connect 6 0 12 0;
#X connect 7 0 8 0;
#X connect 8 0 6 0;
#X connect 9 0 10 0;
#X connect 10 0 6 1;
#X connect 11 0 23 1;
#X connect 12 0 13 0;
#X connect 13 0 17 0;
#X connect 14 0 0 0;
#X connect 15 0 16 0;
#X connect 15 0 17 1;
#X connect 16 0 18 1;
#X connect 17 0 27 0;
#X connect 18 0 27 0;
#X connect 19 0 20 0;
#X connect 20 0 11 0;
#X connect 20 0 5 0;
#X connect 21 0 22 0;
#X connect 22 0 20 0;
#X connect 22 1 23 0;
#X connect 22 1 24 0;
#X connect 23 0 7 0;
#X connect 24 0 9 0;
#X connect 25 0 21 0;
