#N canvas 626 86 1186 751 10;
#X declare -lib Gem;
#X declare -lib zexy;
#X obj 35 271 f \$0;
#X obj 314 675 gemvertexbuffer;
#X obj 35 239 spigot 1;
#N canvas 1058 522 361 522 vertcolor 0;
#X obj 69 174 until;
#X msg 107 174 0;
#X obj 69 194 f;
#X obj 95 194 + 1;
#X obj 56 65 loadbang;
#X obj 69 215 t f f f;
#X obj 49 18 inlet;
#X obj 169 208 unpack f f f;
#X text 249 208 r g b;
#X obj 207 334 pow;
#X obj 208 356 pow;
#X obj 23 350 array set \$0-colorR;
#X obj 34 372 array set \$0-colorG;
#X obj 52 394 array set \$0-colorB;
#X obj 169 229 * -2;
#X obj 204 229 * -2;
#X obj 238 229 * -2;
#X obj 238 249 + 2;
#X obj 169 249 + 2;
#X obj 204 249 + 2;
#X obj 208 378 pow;
#X obj 49 105 t b b l;
#X obj 169 19 inlet;
#X obj 69 132 f 8192;
#X obj 49 40 route list bang;
#X obj 69 153 t f b f;
#X obj 69 236 /;
#X obj 112 304 array set \$0-opacity;
#X msg 56 85 0 0.7 1;
#X connect 0 0 2 0;
#X connect 1 0 2 1;
#X connect 2 0 3 0;
#X connect 2 0 5 0;
#X connect 3 0 2 1;
#X connect 4 0 28 0;
#X connect 5 0 26 0;
#X connect 5 1 11 1;
#X connect 5 1 12 1;
#X connect 5 1 13 1;
#X connect 5 2 27 1;
#X connect 6 0 24 0;
#X connect 7 0 14 0;
#X connect 7 1 15 0;
#X connect 7 2 16 0;
#X connect 9 0 11 0;
#X connect 10 0 12 0;
#X connect 14 0 18 0;
#X connect 15 0 19 0;
#X connect 16 0 17 0;
#X connect 17 0 20 1;
#X connect 18 0 9 1;
#X connect 19 0 10 1;
#X connect 20 0 13 0;
#X connect 21 1 23 0;
#X connect 21 2 7 0;
#X connect 22 0 23 1;
#X connect 23 0 25 0;
#X connect 24 0 21 0;
#X connect 24 1 28 0;
#X connect 25 0 0 0;
#X connect 25 1 1 0;
#X connect 25 2 26 1;
#X connect 26 0 9 0;
#X connect 26 0 10 0;
#X connect 26 0 20 0;
#X connect 26 0 27 0;
#X connect 28 0 21 0;
#X restore 165 301 pd vertcolor;
#X obj 84 197 tabwrite~ \$0-arrayX;
#X obj 141 176 tabwrite~ \$0-arrayY;
#X obj 35 118 bang~;
#X obj 84 30 inlet~;
#X text 126 29 position;
#X obj 35 138 t a a a a;
#X msg 211 400 width \$1;
#X obj 344 120 loadbang;
#X obj 424 162 f \$2;
#X obj 389 162 f \$1;
#X obj 460 162 f \$3;
#X obj 389 182 sel 0;
#X obj 424 182 sel 0;
#X obj 460 182 sel 0;
#X obj 259 343 pack \$1 \$0;
#X msg 488 470 resize \$1;
#X obj 259 243 sel 1 0;
#X msg 488 449 resize 0;
#X obj 400 120 bng 19 250 50 0 empty empty empty 0 -10 0 12 #fcfcfc #000000 #000000;
#X obj 190 71 inlet~;
#X obj 190 155 tabwrite~ \$0-colorA;
#X obj 190 113 *~;
#X obj 190 30 loadbang;
#X obj 277 30 declare -lib Gem;
#X msg 417 330 0 \, destroy;
#X obj 117 223 route update color width display;
#X obj 417 297 t b b;
#X obj 259 264 t b b b;
#X obj 206 92 tabreceive~ \$0-opacity;
#X obj 565 181 pow~ 2;
#X obj 565 202 snake~ out;
#X obj 565 240 sqrt~;
#X obj 565 260 pow~ -1;
#X obj 565 281 min~ 1;
#X obj 565 118 rzero~ 1;
#X obj 620 118 rzero~ 1;
#X obj 565 138 snake~;
#X obj 507 373 gemwin 60;
#X obj 190 134 *~;
#X msg 190 51 1;
#X msg 35 301 position \$1-arrayX \$1-arrayY \$1-zero \, color \$1-colorR \$1-colorG \$1-colorB \$1-colorA, f 20;
#X obj 700 115 loadbang;
#X obj 642 503 hsl 500 15 0 1 0 0 empty empty empty -2 -8 0 10 #fcfcfc #000000 #000000 0 1;
#X text 636 486 blur;
#X obj 344 141 t a a a a a a;
#X obj 314 465 gemhead;
#X obj 84 102 snake~ out;
#X obj 488 494 array define \$0-arrayX;
#X obj 488 514 array define \$0-arrayY;
#X obj 488 535 array define \$0-zero;
#X obj 488 566 array define \$0-colorR;
#X obj 488 587 array define \$0-colorG;
#X obj 488 607 array define \$0-colorB;
#X obj 488 628 array define \$0-colorA;
#X obj 488 659 array define \$0-opacity;
#X obj 417 264 switch~;
#X msg 417 243 set \$1 \$2 \$3 \, 1;
#X obj 327 343 s \$0-zero;
#X obj 364 464 r to_fb;
#X obj 637 424 s to_fb;
#X obj 277 297 f;
#X obj 84 51 pmpd2d~ -m 2 2 2, f 8;
#X obj 417 223 pack f 32 1;
#X msg 637 403 dimen 1600 1600;
#X msg 507 341 create \, FSAA 4 \, dimen 800 800 \, title XY\ oscilloscope \, 1, f 30;
#X obj 314 486 gemframebuffer;
#X msg 327 323 const -4;
#X obj 314 565 translateXYZ 0 0 -4;
#X obj 207 460 gemhead 100;
#X obj 207 600 square 4;
#X obj 97 540 t b a;
#X obj 97 716 square 4;
#X floatatom 639 564 15 0 0 0 - - - 0;
#X obj 97 669 alpha 1;
#N canvas 70 136 503 739 pass_blur 0;
#X obj 75 88 inlet;
#X obj 75 453 outlet;
#X obj 75 149 single_blur 76 0 64;
#X obj 75 226 single_blur 80 0 16;
#X obj 75 244 single_blur 81 16 0;
#X obj 75 262 single_blur 82 0 8;
#X obj 75 280 single_blur 83 8 0;
#X obj 75 298 single_blur 84 0 4;
#X obj 75 316 single_blur 85 4 0;
#X obj 75 335 single_blur 86 0 2;
#X obj 75 353 single_blur 87 2 0;
#X obj 75 370 single_blur 88 0 1;
#X obj 75 388 single_blur 89 1 0;
#X obj 75 203 single_blur 79 32 0;
#X obj 75 185 single_blur 78 0 32;
#X obj 75 167 single_blur 77 64 0;
#X obj 197 98 inlet;
#X connect 0 0 2 0;
#X connect 2 0 15 0;
#X connect 3 0 4 0;
#X connect 4 0 5 0;
#X connect 5 0 6 0;
#X connect 6 0 7 0;
#X connect 7 0 8 0;
#X connect 8 0 9 0;
#X connect 9 0 10 0;
#X connect 10 0 11 0;
#X connect 11 0 12 0;
#X connect 12 0 1 0;
#X connect 13 0 3 0;
#X connect 14 0 13 0;
#X connect 15 0 14 0;
#X connect 16 0 2 1;
#X connect 16 0 15 1;
#X connect 16 0 14 1;
#X connect 16 0 13 1;
#X connect 16 0 12 1;
#X connect 16 0 11 1;
#X connect 16 0 10 1;
#X connect 16 0 9 1;
#X connect 16 0 8 1;
#X connect 16 0 7 1;
#X connect 16 0 6 1;
#X connect 16 0 5 1;
#X connect 16 0 4 1;
#X connect 16 0 3 1;
#X restore 395 509 pd pass_blur;
#X obj 565 160 *~ 100;
#X obj 97 459 gemhead -1;
#X obj 207 563 pix_texture;
#X msg 259 364 color_enable 1 \, position_enable 1 \, draw linestrip \, width 6, f 37;
#X obj 417 203 f 16384;
#X msg 639 464 0.01;
#X obj 639 520 / 500;
#X obj 277 58 declare -lib zexy;
#X msg 441 23 reset \, mass 0 0 \, mass 1 0 0 \$1 \, link 0 1 \$2 \$3 \, inPosX 0 0 1 \, inPosY 1 0 1 \, outPosX 0 1 1 \, outPosY 1 1 1, f 17;
#X obj 695 50 hsl 128 17 0.02 2 1 0 empty empty mass\ damp -2 -8 0 10 #e4e4e4 #4d4d4d #373737 0 1;
#X obj 834 50 hsl 128 17 0.02 2 1 0 empty empty link\ rigidity -2 -8 0 10 #e4e4e4 #4d4d4d #373737 0 1;
#X obj 974 50 hsl 128 17 0.02 2 1 0 empty empty link\ damp -2 -8 0 10 #e4e4e4 #4d4d4d #373737 0 1;
#X floatatom 692 74 5 0 0 0 - - - 12;
#X floatatom 831 74 5 0 0 0 - - - 12;
#X floatatom 971 74 5 0 0 0 - - - 12;
#X obj 831 99 t b f;
#X obj 971 99 t b f;
#X obj 692 138 pack 0.81 1.4 0.18;
#X obj 97 577 pix_snap2tex 0 0 800 800, f 12;
#X msg 32 603 1;
#X text 27 628 plugdata workaround;
#X obj 32 581 del 200;
#X obj 84 84 *~ 6;
#X obj 314 618 alpha 1;
#X obj 97 693 colorRGB 1 1 1 0.6;
#X connect 0 0 44 0;
#X connect 2 0 0 0;
#X connect 6 0 9 0;
#X connect 7 0 65 0;
#X connect 7 1 29 0;
#X connect 9 0 2 0;
#X connect 9 1 4 0;
#X connect 9 2 5 0;
#X connect 9 3 24 0;
#X connect 10 0 1 0;
#X connect 11 0 48 0;
#X connect 12 0 16 0;
#X connect 13 0 15 0;
#X connect 14 0 17 0;
#X connect 15 0 83 0;
#X connect 15 1 83 0;
#X connect 16 1 66 1;
#X connect 17 1 66 2;
#X connect 18 0 82 0;
#X connect 19 0 1 0;
#X connect 19 0 51 0;
#X connect 19 0 52 0;
#X connect 19 0 53 0;
#X connect 19 0 54 0;
#X connect 19 0 55 0;
#X connect 19 0 56 0;
#X connect 19 0 57 0;
#X connect 19 0 58 0;
#X connect 20 0 31 0;
#X connect 20 1 30 0;
#X connect 21 0 1 0;
#X connect 22 0 48 0;
#X connect 23 0 25 0;
#X connect 25 0 42 0;
#X connect 26 0 43 0;
#X connect 28 0 41 0;
#X connect 29 0 2 1;
#X connect 29 0 49 0;
#X connect 29 1 3 0;
#X connect 29 2 10 0;
#X connect 29 3 20 0;
#X connect 30 0 28 0;
#X connect 30 1 21 0;
#X connect 31 0 18 0;
#X connect 31 0 70 0;
#X connect 31 0 100 0;
#X connect 31 1 64 0;
#X connect 31 2 68 0;
#X connect 32 0 25 1;
#X connect 33 0 34 0;
#X connect 34 0 35 0;
#X connect 34 1 35 0;
#X connect 35 0 36 0;
#X connect 36 0 37 0;
#X connect 37 0 42 1;
#X connect 38 0 40 0;
#X connect 39 0 40 1;
#X connect 40 0 79 0;
#X connect 42 0 24 0;
#X connect 43 0 23 0;
#X connect 44 0 1 0;
#X connect 45 0 96 0;
#X connect 46 0 85 0;
#X connect 48 0 67 0;
#X connect 48 0 84 0;
#X connect 48 1 3 0;
#X connect 48 2 64 0;
#X connect 48 3 13 0;
#X connect 48 4 12 0;
#X connect 48 5 14 0;
#X connect 49 0 69 0;
#X connect 50 0 4 0;
#X connect 50 0 38 0;
#X connect 50 1 39 0;
#X connect 50 1 5 0;
#X connect 60 0 59 0;
#X connect 62 0 69 0;
#X connect 64 0 19 0;
#X connect 64 0 3 1;
#X connect 65 0 101 0;
#X connect 66 0 60 0;
#X connect 67 0 63 0;
#X connect 68 0 41 0;
#X connect 69 0 71 0;
#X connect 69 1 78 0;
#X connect 70 0 61 0;
#X connect 71 0 102 0;
#X connect 72 0 81 0;
#X connect 74 0 97 0;
#X connect 74 1 97 0;
#X connect 76 0 78 1;
#X connect 77 0 103 0;
#X connect 78 0 81 1;
#X connect 79 0 33 0;
#X connect 80 0 74 0;
#X connect 81 0 73 0;
#X connect 82 0 1 0;
#X connect 83 0 66 0;
#X connect 83 0 64 1;
#X connect 84 0 46 0;
#X connect 85 0 76 0;
#X connect 87 0 65 0;
#X connect 88 0 91 0;
#X connect 89 0 92 0;
#X connect 90 0 93 0;
#X connect 91 0 96 0;
#X connect 92 0 94 0;
#X connect 93 0 95 0;
#X connect 94 0 96 0;
#X connect 94 1 96 1;
#X connect 95 0 96 0;
#X connect 95 1 96 2;
#X connect 96 0 87 0;
#X connect 97 0 77 0;
#X connect 98 0 97 0;
#X connect 100 0 98 0;
#X connect 101 0 50 0;
#X connect 102 0 1 0;
#X connect 103 0 75 0;
