#N canvas 310 229 324 475 10;
#X obj 86 21 inlet;
#X obj 26 175 gemframebuffer;
#X obj 26 245 translateXYZ 0 0 -4;
#X obj 26 315 pix_texture;
#X obj 26 335 square 4;
#X msg 43 294 quality 1 \, rectangle 0;
#X obj 43 273 loadbang;
#X obj 107 396 outlet;
#X obj 47 196 bng 15 250 50 0 empty empty empty 17 7 0 10 #fcfcfc #000000 #000000;
#X obj 141 136 t f f;
#X obj 141 184 pack f f;
#X obj 26 115 gemhead \$1;
#X obj 141 163 * \$2;
#X obj 194 162 * \$3;
#X msg 141 204 distance \$1 \$2;
#X obj 42 149 r to_fb;
#X obj 141 90 route float;
#X obj 203 112 unpack f f;
#X obj 26 225 _glsl shader/blur;
#X obj 141 68 inlet;
#X connect 0 0 3 1;
#X connect 1 0 18 0;
#X connect 1 1 7 0;
#X connect 2 0 3 0;
#X connect 3 0 4 0;
#X connect 5 0 3 0;
#X connect 6 0 5 0;
#X connect 8 0 18 0;
#X connect 9 0 12 0;
#X connect 9 1 13 0;
#X connect 10 0 14 0;
#X connect 11 0 1 0;
#X connect 12 0 10 0;
#X connect 13 0 10 1;
#X connect 14 0 18 1;
#X connect 15 0 1 0;
#X connect 16 0 9 0;
#X connect 16 1 17 0;
#X connect 17 0 12 0;
#X connect 17 1 13 0;
#X connect 18 0 2 0;
#X connect 19 0 16 0;
